<svg xmlns="http://www.w3.org/2000/svg" width="49.089" height="49.148" viewBox="166.943 411.341 49.089 49.148"><g data-name="Group 33"><path d="M190.318 415.755a2.5 2.5 0 1 1 0 .1" fill="#49d6cb" fill-rule="evenodd" data-name="Ellipse 47"/><path d="M175.095 421.689a2.5 2.5 0 1 1 0 .1" fill="#49d6cb" fill-rule="evenodd" data-name="Ellipse 48"/><path d="M169.725 437.154a2.5 2.5 0 1 1 0 .1" fill="#49d6cb" fill-rule="evenodd" data-name="Ellipse 49"/><path d="M177.94 451.455a2.5 2.5 0 1 1 0 .1" fill="#49d6cb" fill-rule="evenodd" data-name="Ellipse 50"/><path d="M194.222 453.463a2.5 2.5 0 1 1 0 .1" fill="#49d6cb" fill-rule="evenodd" data-name="Ellipse 51"/><path d="M205.983 441.44a2.5 2.5 0 1 1 0 .1" fill="#49d6cb" fill-rule="evenodd" data-name="Ellipse 52"/><path d="M205.696 433.851a2.5 2.5 0 1 1 0 .1" fill="#49d6cb" fill-rule="evenodd" data-name="Ellipse 53"/><path d="M205.824 452.768a1.647 1.647 0 1 1 0 .1" fill="#49d6cb" fill-rule="evenodd" data-name="Ellipse 54"/><path d="M184.998 458.792a1.647 1.647 0 1 1 0 .1" fill="#49d6cb" fill-rule="evenodd" data-name="Ellipse 55"/><path d="M168.59 447.307a1.647 1.647 0 1 1 0 .1" fill="#49d6cb" fill-rule="evenodd" data-name="Ellipse 56"/><path d="M166.943 426.363a1.647 1.647 0 1 1 0 .1" fill="#49d6cb" fill-rule="evenodd" data-name="Ellipse 57"/><path d="M182.548 412.938a1.647 1.647 0 1 1 0 .1" fill="#49d6cb" fill-rule="evenodd" data-name="Ellipse 58"/><path d="M202.558 414.585a1.647 1.647 0 1 1 0 .1" fill="#49d6cb" fill-rule="evenodd" data-name="Ellipse 59"/><path d="M204.205 425.124a2.5 2.5 0 1 1 0 .1" fill="#49d6cb" fill-rule="evenodd" data-name="Ellipse 60"/><path d="M196.183 434.9a2.908 2.908 0 1 1 0 .1" fill="#49d6cb" fill-rule="evenodd" data-name="Ellipse 61"/><path d="M206.521 432.047a5.125 5.125 0 0 0 .004-.005 24.248 24.248 0 0 1 .216 1.122c.291 1.738.276 2.847.274 2.935a.987.987 0 0 1 0 .006 1.606 1.606 0 0 0-.033-.02c-.327-.204-3.059-1.8-5.121.127a4.32 4.32 0 0 0-.445.487 6.26 6.26 0 0 1-.153-.117c-2.483-1.963-.983-3.963-.81-4.176a.782.782 0 0 1 .015-.019s3.743 2.788 6.053-.34Z" fill="#49d6cb" fill-rule="evenodd" data-name="Path 687"/><g data-name="Group 27"><path d="M200.042 447.764a2.5 2.5 0 1 1 0 .1" fill="#49d6cb" fill-rule="evenodd" data-name="Ellipse 62"/><path d="M193.025 441.415a2.908 2.908 0 1 1 0 .1" fill="#49d6cb" fill-rule="evenodd" data-name="Ellipse 63"/><path d="M198.785 440.892s.237 4.666 4.126 4.448c-1.312 1.668-2.417 2.633-2.73 2.894a4.313 4.313 0 0 1-.09.073s-.439-4.025-4.025-3.937c-.183-3.476 2.61-3.48 2.716-3.478a.275.275 0 0 1 .003 0Z" fill="#49d6cb" fill-rule="evenodd" data-name="Path 688"/></g><g data-name="Group 28"><path d="M184.433 451.811a2.5 2.5 0 1 1 0 .1" fill="#49d6cb" fill-rule="evenodd" data-name="Ellipse 64"/><path d="M186.073 442.878a2.908 2.908 0 1 1 0 .1" fill="#49d6cb" fill-rule="evenodd" data-name="Ellipse 65"/><path d="M190.939 445.08a2.423 2.423 0 0 0-.058.04c-.449.323-3.29 2.51-1.947 5.254a4.385 4.385 0 0 0 .31.531c-2.392-.305-3.87-.847-3.986-.89a1.189 1.189 0 0 1-.008-.004s2.863-2.169 1.592-4.954a4.363 4.363 0 0 0-.284-.522 5.736 5.736 0 0 1 .509-.307c2.384-1.268 3.652.506 3.846.809a1.09 1.09 0 0 1 .026.043Z" fill="#49d6cb" fill-rule="evenodd" data-name="Path 689"/></g><g data-name="Group 29"><path d="M172.897 443.334a2.5 2.5 0 1 1 0 .1" fill="#49d6cb" fill-rule="evenodd" data-name="Ellipse 66"/><path d="M180.43 438.758a2.908 2.908 0 1 1 0 .1" fill="#49d6cb" fill-rule="evenodd" data-name="Ellipse 67"/><path d="M183.093 441.706a1.574 1.574 0 0 0-.027-.006c-.374-.08-4.506-.886-5.38 2.659a4.812 4.812 0 0 0-.016.068 24.13 24.13 0 0 1-.734-1.085c-.927-1.457-1.323-2.438-1.328-2.45 0 0 3.846.676 4.852-2.585a4.645 4.645 0 0 0 .052-.182 5.598 5.598 0 0 1 .674.2c2.502.932 1.984 3.103 1.914 3.357a.82.82 0 0 1-.007.024Z" fill="#49d6cb" fill-rule="evenodd" data-name="Path 690"/></g><g data-name="Group 30"><path d="M172.465 428.04a2.5 2.5 0 1 1 0 .1" fill="#49d6cb" fill-rule="evenodd" data-name="Ellipse 68"/><path d="M180.518 431.565a2.908 2.908 0 1 1 0 .1" fill="#49d6cb" fill-rule="evenodd" data-name="Ellipse 69"/><path d="M175.886 430.38a4.55 4.55 0 0 0-.368.149c.633-2.073 1.33-3.386 1.51-3.709a3.799 3.799 0 0 1 .044-.078 2.12 2.12 0 0 0 .035.063c.268.472 2.092 3.421 5.143 2.15 1.332 2.956-.836 4.039-1.219 4.203a1.204 1.204 0 0 1-.056.023s-1.778-3.969-5.089-2.801Z" fill="#49d6cb" fill-rule="evenodd" data-name="Path 691"/></g><g data-name="Group 31"><path d="M198.33 420.69a2.5 2.5 0 1 1 0 .1" fill="#49d6cb" fill-rule="evenodd" data-name="Ellipse 70"/><path d="M192.708 428.228a2.908 2.908 0 1 1 0 .1" fill="#49d6cb" fill-rule="evenodd" data-name="Ellipse 71"/><path d="M194.596 425.554a2.58 2.58 0 0 0 .08-.02c.606-.152 4.423-1.258 3.654-4.763a24.14 24.14 0 0 1 1.128.666c1.462.92 2.24 1.636 2.25 1.644 0 0-3.903 1.076-3.245 4.603-3.425.74-3.856-2.06-3.866-2.13Z" fill="#49d6cb" fill-rule="evenodd" data-name="Path 692"/></g><g data-name="Group 32"><path d="M183.324 419.261a2.385 2.385 0 1 1 0 .1" fill="#49d6cb" fill-rule="evenodd" data-name="Ellipse 72"/><path d="M186.028 427.437a2.774 2.774 0 1 1 0 .1" fill="#49d6cb" fill-rule="evenodd" data-name="Ellipse 73"/><path d="M184.407 421.302a4.617 4.617 0 0 0-.028-.011 23.022 23.022 0 0 1 1.134-.525c1.23-.528 2.11-.774 2.403-.85a4.117 4.117 0 0 1 .107-.025 1.5 1.5 0 0 0-.011.033c-.116.363-1.059 3.603 1.75 4.953a4.47 4.47 0 0 0 .116.054 5.428 5.428 0 0 1-.259.542c-1.301 2.37-3.397 1.393-3.504 1.341a.355.355 0 0 1-.004-.002s1.698-4.093-1.704-5.51Z" fill="#49d6cb" fill-rule="evenodd" data-name="Path 693"/></g><path d="M212.739 433.414a1.647 1.647 0 1 1 0 .1" fill="#49d6cb" fill-rule="evenodd" data-name="Ellipse 74"/><path d="M200.018 431.136a.68.68 0 1 1 0 .1" fill="#49d6cb" fill-rule="evenodd" data-name="Ellipse 75"/><path d="M174.837 433.13a.68.68 0 1 1 0 .1" fill="#49d6cb" fill-rule="evenodd" data-name="Ellipse 76"/><path d="M195.616 423.19a.68.68 0 1 1 0 .1" fill="#49d6cb" fill-rule="evenodd" data-name="Ellipse 77"/><path d="M189.637 448.954a.68.68 0 1 1 0 .1" fill="#49d6cb" fill-rule="evenodd" data-name="Ellipse 78"/><path d="M202.23 441.697a.68.68 0 1 1 0 .1" fill="#49d6cb" fill-rule="evenodd" data-name="Ellipse 79"/><path d="M181.997 424.663a.68.68 0 1 1 0 .1" fill="#49d6cb" fill-rule="evenodd" data-name="Ellipse 80"/></g></svg>