<svg xmlns="http://www.w3.org/2000/svg" width="41.839" height="50" viewBox="1408 2074 41.839 50"><g data-name="Group 1021"><path d="M1434.57 2114.782v.002h-24.031v-31.569h24.032v.508a1.285 1.285 0 0 0 1.269 1.3 1.285 1.285 0 0 0 1.27-1.3v-2.018c0-4.248-3.375-7.705-7.523-7.705h-14.066a7.624 7.624 0 0 0-7.52 7.705v34.59a7.624 7.624 0 0 0 7.52 7.705h14.066a7.624 7.624 0 0 0 7.522-7.706v-1.512c0-.718-.568-1.3-1.269-1.3s-1.27.582-1.27 1.3Zm-4.983 6.617h-14.066c-2.382 0-4.372-1.723-4.861-4.014h23.79c-.49 2.291-2.481 4.014-4.863 4.014Zm-14.066-44.798h14.066c2.382 0 4.373 1.722 4.863 4.013h-23.79c.489-2.29 2.48-4.013 4.861-4.013Z" fill="#fff" fill-rule="evenodd" data-name="Path 3202"/><path d="M1448.462 2086.722h-33.278c-.76 0-1.378.55-1.378 1.23v22.395a1.235 1.235 0 0 0 .826 1.128 1.516 1.516 0 0 0 .552.103h33.278c.76 0 1.377-.551 1.377-1.23v-22.396a1.235 1.235 0 0 0-.826-1.128 1.516 1.516 0 0 0-.551-.102Zm-31.9 22.395v-16.415h30.522v16.415h-30.522Zm30.522-19.934v1.058h-30.522v-1.058h30.522Z" fill="#fff" fill-rule="evenodd" data-name="Path 3203"/><path d="M1420.559 2104.765h14.092a1.378 1.378 0 0 0 1.378-1.378v-8.497a1.378 1.378 0 0 0-1.378-1.378h-14.092a1.378 1.378 0 0 0-1.378 1.378v8.497c0 .761.616 1.378 1.378 1.378Zm1.377-8.498h11.337v5.742h-11.337v-5.742Z" fill="#fff" fill-rule="evenodd" data-name="Path 3204"/><path d="M1443.637 2093.96h-6.218a1.378 1.378 0 0 0-1.378 1.378c0 .762.617 1.379 1.378 1.379h6.218c.761 0 1.378-.617 1.378-1.379a1.377 1.377 0 0 0-1.378-1.377Z" fill="#fff" fill-rule="evenodd" data-name="Path 3205"/><path d="M1437.901 2100.617h3.731a1.377 1.377 0 0 0 1.378-1.378 1.378 1.378 0 0 0-1.378-1.378h-3.731c-.761 0-1.378.617-1.378 1.378a1.378 1.378 0 0 0 1.378 1.378Z" fill="#fff" fill-rule="evenodd" data-name="Path 3206"/><path d="M1437.42 2104.515h5.595a1.378 1.378 0 0 0 1.378-1.378c0-.761-.616-1.378-1.378-1.378h-5.596c-.76 0-1.378.617-1.378 1.378a1.378 1.378 0 0 0 1.378 1.378Z" fill="#fff" fill-rule="evenodd" data-name="Path 3207"/><path d="M1443.637 2105.464h-24.25c-.76 0-1.378.616-1.378 1.378a1.377 1.377 0 0 0 1.378 1.378h24.25a1.377 1.377 0 0 0 1.378-1.378c0-.762-.617-1.378-1.378-1.378Z" fill="#fff" fill-rule="evenodd" data-name="Path 3208"/><path d="M1424.254 2117.65h-2.27a1.378 1.378 0 0 0-1.378 1.377 1.378 1.378 0 0 0 1.378 1.378h2.27a1.378 1.378 0 0 0 1.378-1.378c0-.761-.616-1.378-1.378-1.378Z" fill="#fff" fill-rule="evenodd" data-name="Path 3209"/></g></svg>