<svg xmlns="http://www.w3.org/2000/svg" width="52.575" height="45" viewBox="465.67 2075.427 52.575 45"><g data-name="Group 1019"><g data-name="Group 1008"><path d="m506.014 2098.32-7.338-4.645a1.236 1.236 0 0 0-1.664.316 1.274 1.274 0 0 0-.047.068 1.24 1.24 0 0 0 .334 1.675 1.257 1.257 0 0 0 .051.035l5.767 3.65-5.692 3.985a1.232 1.232 0 0 0-.485.69c-.087.322-.045.677.143.978a1.258 1.258 0 0 0 .037.057 1.227 1.227 0 0 0 .726.495 1.253 1.253 0 0 0 .29.034 1.245 1.245 0 0 0 .053-.001 1.23 1.23 0 0 0 .614-.194 1.243 1.243 0 0 0 .043-.029l7.216-5.052a1.236 1.236 0 0 0 .53-1.015 1.251 1.251 0 0 0 0-.029 1.24 1.24 0 0 0-.578-1.017Z" fill="#fff" fill-rule="evenodd" data-name="Path 3186"/></g><g data-name="Group 1009"><path d="m485.237 2093.674-7.339 4.647a1.248 1.248 0 0 0-.576 1.017 1.266 1.266 0 0 0 0 .023 1.244 1.244 0 0 0 .53 1.021l7.217 5.051a1.248 1.248 0 0 0 .486.204c.074.013.149.02.223.02a1.238 1.238 0 0 0 .983-.481 1.257 1.257 0 0 0 .035-.048 1.235 1.235 0 0 0 .21-.537 1.239 1.239 0 0 0-.517-1.188l-5.691-3.983 5.764-3.652a1.24 1.24 0 0 0-1.273-2.125 1.266 1.266 0 0 0-.052.031Z" fill="#fff" fill-rule="evenodd" data-name="Path 3187"/></g><g data-name="Group 1010"><path d="M514.522 2075.427h-45.13a3.737 3.737 0 0 0-3.722 3.743v5.86a1.235 1.235 0 0 0 1.232 1.239h50.11a1.235 1.235 0 0 0 1.233-1.24v-5.86c0-2.062-1.67-3.742-3.723-3.742Zm1.258 8.364h-47.646v-4.621a1.262 1.262 0 0 1 1.258-1.265h45.13c.693 0 1.258.568 1.258 1.265v4.62Z" fill="#fff" fill-rule="evenodd" data-name="Path 3188"/></g><g data-name="Group 1011"><path d="M515.78 2090.286v26.428a1.259 1.259 0 0 1-1.258 1.255h-45.13a1.257 1.257 0 0 1-1.258-1.255v-26.428a1.23 1.23 0 0 0-1.232-1.23 1.23 1.23 0 0 0-1.232 1.23v26.428a3.723 3.723 0 0 0 3.723 3.713h45.129a3.723 3.723 0 0 0 3.723-3.713v-26.428a1.23 1.23 0 0 0-1.232-1.23 1.23 1.23 0 0 0-1.233 1.23Z" fill="#fff" fill-rule="evenodd" data-name="Path 3189"/></g><g data-name="Group 1012"><path d="m491.02 2107.527 4.26-15.178a1.24 1.24 0 0 0-.859-1.528 1.252 1.252 0 0 0-.108-.025 1.235 1.235 0 0 0-.225-.021 1.242 1.242 0 0 0-1.194.903l-4.26 15.179c-.186.66.2 1.343.857 1.528a1.278 1.278 0 0 0 .013.003c.089.024.178.037.264.042a1.236 1.236 0 0 0 .06.001 1.24 1.24 0 0 0 1.193-.904Z" fill="#fff" fill-rule="evenodd" data-name="Path 3190"/></g><g data-name="Group 1013"><path d="M471.601 2079.396a1.297 1.297 0 0 0-1.294 1.297 1.296 1.296 0 0 0 1.294 1.295 1.297 1.297 0 0 0 1.298-1.295c0-.716-.581-1.297-1.298-1.297Z" fill="#fff" fill-rule="evenodd" data-name="Path 3191"/></g><g data-name="Group 1014"><path d="M476.348 2079.396c-.714 0-1.295.58-1.295 1.297a1.296 1.296 0 0 0 1.295 1.295c.716 0 1.297-.581 1.297-1.295a1.297 1.297 0 0 0-1.297-1.297Z" fill="#fff" fill-rule="evenodd" data-name="Path 3192"/></g><g data-name="Group 1015"><path d="M481.122 2079.396a1.297 1.297 0 0 0-1.296 1.297 1.297 1.297 0 0 0 2.592 0 1.297 1.297 0 0 0-1.296-1.297Z" fill="#fff" fill-rule="evenodd" data-name="Path 3193"/></g><g data-name="Group 1016"><path d="M472.899 2114.206h4.026a1.238 1.238 0 1 0 0-2.478H472.9c-.685 0-1.24.554-1.24 1.24a1.238 1.238 0 0 0 1.24 1.238Z" fill="#fff" fill-rule="evenodd" data-name="Path 3194"/></g><g data-name="Group 1017"><path d="M511.326 2111.728h-10.532a1.238 1.238 0 0 0-1.24 1.24 1.238 1.238 0 0 0 1.24 1.238h10.532a1.238 1.238 0 0 0 1.239-1.239c0-.685-.554-1.239-1.24-1.239Z" fill="#fff" fill-rule="evenodd" data-name="Path 3195"/></g><g data-name="Group 1018"><path d="M511.326 2106.838h-4.646a1.238 1.238 0 1 0 0 2.478h4.646c.685 0 1.24-.554 1.24-1.24a1.238 1.238 0 0 0-1.24-1.238Z" fill="#fff" fill-rule="evenodd" data-name="Path 3196"/></g></g></svg>