<svg xmlns="http://www.w3.org/2000/svg" width="132.299" height="49.148" viewBox="277 10.319 132.299 49.148"><g data-name="Group 35"><g data-name="Group 33"><path d="M300.375 14.733a2.5 2.5 0 1 1 0 .1" fill="#000" fill-rule="evenodd" data-name="Ellipse 47"/><path d="M285.151 20.666a2.5 2.5 0 1 1 0 .1" fill="#000" fill-rule="evenodd" data-name="Ellipse 48"/><path d="M279.782 36.131a2.5 2.5 0 1 1 0 .1" fill="#000" fill-rule="evenodd" data-name="Ellipse 49"/><path d="M287.998 50.432a2.5 2.5 0 1 1 0 .1" fill="#000" fill-rule="evenodd" data-name="Ellipse 50"/><path d="M304.279 52.44a2.5 2.5 0 1 1 0 .1" fill="#000" fill-rule="evenodd" data-name="Ellipse 51"/><path d="M316.04 40.418a2.5 2.5 0 1 1 0 .1" fill="#000" fill-rule="evenodd" data-name="Ellipse 52"/><path d="M315.753 32.829a2.5 2.5 0 1 1 0 .1" fill="#000" fill-rule="evenodd" data-name="Ellipse 53"/><path d="M315.88 51.746a1.647 1.647 0 1 1 0 .1" fill="#000" fill-rule="evenodd" data-name="Ellipse 54"/><path d="M295.055 57.77a1.647 1.647 0 1 1 0 .1" fill="#000" fill-rule="evenodd" data-name="Ellipse 55"/><path d="M278.647 46.284a1.647 1.647 0 1 1 0 .1" fill="#000" fill-rule="evenodd" data-name="Ellipse 56"/><path d="M277 25.34a1.647 1.647 0 1 1 0 .1" fill="#000" fill-rule="evenodd" data-name="Ellipse 57"/><path d="M292.605 11.916a1.647 1.647 0 1 1 0 .1" fill="#000" fill-rule="evenodd" data-name="Ellipse 58"/><path d="M312.614 13.563a1.647 1.647 0 1 1 0 .1" fill="#000" fill-rule="evenodd" data-name="Ellipse 59"/><path d="M314.261 24.101a2.5 2.5 0 1 1 0 .1" fill="#000" fill-rule="evenodd" data-name="Ellipse 60"/><path d="M306.24 33.877a2.908 2.908 0 1 1 0 .1" fill="#000" fill-rule="evenodd" data-name="Ellipse 61"/><path d="M316.578 31.024a5.125 5.125 0 0 0 .004-.005 24.248 24.248 0 0 1 .216 1.122c.29 1.738.275 2.848.274 2.936a.987.987 0 0 1 0 .005 1.606 1.606 0 0 0-.033-.02c-.328-.203-3.059-1.8-5.121.127a4.32 4.32 0 0 0-.446.487 6.26 6.26 0 0 1-.152-.116c-2.484-1.964-.983-3.964-.81-4.177a.782.782 0 0 1 .015-.018s3.742 2.787 6.053-.34Z" fill="#000" fill-rule="evenodd" data-name="Path 687"/><g data-name="Group 27"><path d="M310.1 46.74a2.5 2.5 0 1 1 0 .1" fill="#000" fill-rule="evenodd" data-name="Ellipse 62"/><path d="M303.081 40.392a2.908 2.908 0 1 1 0 .1" fill="#000" fill-rule="evenodd" data-name="Ellipse 63"/><path d="M308.842 39.87s.237 4.665 4.126 4.448c-1.312 1.667-2.418 2.633-2.73 2.894a4.313 4.313 0 0 1-.09.072s-.439-4.024-4.025-3.937c-.183-3.476 2.61-3.479 2.716-3.478a.275.275 0 0 1 .003 0Z" fill="#000" fill-rule="evenodd" data-name="Path 688"/></g><g data-name="Group 28"><path d="M294.49 50.788a2.5 2.5 0 1 1 0 .1" fill="#000" fill-rule="evenodd" data-name="Ellipse 64"/><path d="M296.13 41.855a2.908 2.908 0 1 1 0 .1" fill="#000" fill-rule="evenodd" data-name="Ellipse 65"/><path d="M300.996 44.057a2.423 2.423 0 0 0-.059.04c-.448.323-3.29 2.51-1.946 5.254a4.385 4.385 0 0 0 .31.532c-2.393-.306-3.87-.848-3.986-.891a1.189 1.189 0 0 1-.008-.003s2.863-2.17 1.592-4.955a4.363 4.363 0 0 0-.284-.522 5.736 5.736 0 0 1 .509-.307c2.384-1.268 3.652.506 3.846.81a1.09 1.09 0 0 1 .026.042Z" fill="#000" fill-rule="evenodd" data-name="Path 689"/></g><g data-name="Group 29"><path d="M282.954 42.311a2.5 2.5 0 1 1 0 .1" fill="#000" fill-rule="evenodd" data-name="Ellipse 66"/><path d="M290.487 37.735a2.908 2.908 0 1 1 0 .1" fill="#000" fill-rule="evenodd" data-name="Ellipse 67"/><path d="M293.15 40.684a1.574 1.574 0 0 0-.027-.006c-.374-.081-4.506-.887-5.38 2.658a4.812 4.812 0 0 0-.016.069 24.13 24.13 0 0 1-.734-1.086c-.927-1.457-1.323-2.438-1.328-2.45 0 0 3.845.677 4.852-2.585a4.645 4.645 0 0 0 .052-.182 5.598 5.598 0 0 1 .674.201c2.502.93 1.984 3.102 1.914 3.356a.82.82 0 0 1-.007.025Z" fill="#000" fill-rule="evenodd" data-name="Path 690"/></g><g data-name="Group 30"><path d="M282.522 27.017a2.5 2.5 0 1 1 0 .1" fill="#000" fill-rule="evenodd" data-name="Ellipse 68"/><path d="M290.575 30.542a2.908 2.908 0 1 1 0 .1" fill="#000" fill-rule="evenodd" data-name="Ellipse 69"/><path d="M285.943 29.357a4.55 4.55 0 0 0-.368.149c.633-2.073 1.33-3.386 1.51-3.708a3.799 3.799 0 0 1 .044-.078 2.12 2.12 0 0 0 .035.062c.268.472 2.092 3.421 5.143 2.15 1.332 2.957-.837 4.04-1.219 4.203a1.204 1.204 0 0 1-.056.023s-1.778-3.969-5.089-2.8Z" fill="#000" fill-rule="evenodd" data-name="Path 691"/></g><g data-name="Group 31"><path d="M308.386 19.667a2.5 2.5 0 1 1 0 .1" fill="#000" fill-rule="evenodd" data-name="Ellipse 70"/><path d="M302.765 27.205a2.908 2.908 0 1 1 0 .1" fill="#000" fill-rule="evenodd" data-name="Ellipse 71"/><path d="M304.653 24.53a2.58 2.58 0 0 0 .08-.018c.606-.153 4.423-1.259 3.654-4.764a24.14 24.14 0 0 1 1.128.666c1.462.92 2.24 1.636 2.25 1.645 0 0-3.903 1.075-3.245 4.602-3.425.74-3.857-2.06-3.867-2.129a.203.203 0 0 1 0-.001Z" fill="#000" fill-rule="evenodd" data-name="Path 692"/></g><g data-name="Group 32"><path d="M293.38 18.239a2.385 2.385 0 1 1 0 .1" fill="#000" fill-rule="evenodd" data-name="Ellipse 72"/><path d="M296.085 26.415a2.774 2.774 0 1 1 0 .1" fill="#000" fill-rule="evenodd" data-name="Ellipse 73"/><path d="M294.464 20.28a4.617 4.617 0 0 0-.028-.012 23.022 23.022 0 0 1 1.134-.525c1.23-.528 2.11-.774 2.403-.85a4.117 4.117 0 0 1 .106-.025 1.5 1.5 0 0 0-.01.033c-.116.364-1.059 3.603 1.75 4.953a4.47 4.47 0 0 0 .115.054 5.428 5.428 0 0 1-.258.542c-1.301 2.37-3.397 1.393-3.504 1.342a.355.355 0 0 1-.004-.003s1.697-4.093-1.704-5.51Z" fill="#000" fill-rule="evenodd" data-name="Path 693"/></g><path d="M322.796 32.391a1.647 1.647 0 1 1 0 .1" fill="#000" fill-rule="evenodd" data-name="Ellipse 74"/><path d="M310.075 30.114a.68.68 0 1 1 0 .1" fill="#000" fill-rule="evenodd" data-name="Ellipse 75"/><path d="M284.894 32.108a.68.68 0 1 1 0 .1" fill="#000" fill-rule="evenodd" data-name="Ellipse 76"/><path d="M305.673 22.168a.68.68 0 1 1 0 .1" fill="#000" fill-rule="evenodd" data-name="Ellipse 77"/><path d="M299.694 47.931a.68.68 0 1 1 0 .1" fill="#000" fill-rule="evenodd" data-name="Ellipse 78"/><path d="M312.287 40.674a.68.68 0 1 1 0 .1" fill="#000" fill-rule="evenodd" data-name="Ellipse 79"/><path d="M292.054 23.64a.68.68 0 1 1 0 .1" fill="#000" fill-rule="evenodd" data-name="Ellipse 80"/></g><g data-name="Group 34"><path d="M352.089 46.134V31.186a1.592 1.592 0 0 1 .043-.382 1.103 1.103 0 0 1 .291-.527 1.113 1.113 0 0 1 .574-.301 1.635 1.635 0 0 1 .335-.033 1.426 1.426 0 0 1 .399.053 1.098 1.098 0 0 1 .477.281 1.114 1.114 0 0 1 .302.574 1.634 1.634 0 0 1 .033.335v14.948a1.592 1.592 0 0 1-.043.382 1.102 1.102 0 0 1-.292.527 1.128 1.128 0 0 1-.664.32 1.567 1.567 0 0 1-.212.014 1.592 1.592 0 0 1-.382-.043 1.102 1.102 0 0 1-.527-.291 1.114 1.114 0 0 1-.301-.574 1.633 1.633 0 0 1-.033-.335Zm.016-20a1.65 1.65 0 0 0 1.195.494 2.093 2.093 0 0 0 .023 0 1.689 1.689 0 0 0 1.22-.51 1.748 1.748 0 0 0 .34-.47 1.739 1.739 0 0 0 .17-.773 2.163 2.163 0 0 0-.017-.275 1.52 1.52 0 0 0-.509-.984 1.761 1.761 0 0 0-1.195-.462 1.801 1.801 0 0 0-1.227.462 1.481 1.481 0 0 0-.452.709 1.945 1.945 0 0 0-.074.55 2.1 2.1 0 0 0 0 .023 1.687 1.687 0 0 0 .51 1.22 2.081 2.081 0 0 0 .016.016Z" fill="#000" fill-rule="evenodd" data-name="Path 694"/><path d="M331.479 31.044v.002a1.713 1.713 0 0 0-.006.117 1.927 1.927 0 0 0 0 .022v14.948c0 .382.113.686.336.909a1.116 1.116 0 0 0 .573.302 1.624 1.624 0 0 0 .335.033 1.416 1.416 0 0 0 .402-.054 1.1 1.1 0 0 0 .474-.281c.223-.223.336-.527.336-.909V36.69a8.333 8.333 0 0 0 5.317 2.421 8.497 8.497 0 0 0 .59.02 8.362 8.362 0 0 0 8.36-8.361 8.362 8.362 0 0 0-8.36-8.362 8.362 8.362 0 0 0-8.363 8.362 6.986 6.986 0 0 0 .006.274Zm2.45.903a6.014 6.014 0 0 0 5.902 4.808 6.002 6.002 0 0 0 6.02-5.985 6.003 6.003 0 0 0-6.02-5.987c-3.269 0-5.927 2.59-6.017 5.819a5.098 5.098 0 0 0-.001.168c0 .403.039.795.116 1.177Z" fill="#000" fill-rule="evenodd" data-name="Path 695"/><path d="m371.85 46.804-5.515-7.012-.956-.83-5.546-7.043c-.234-.276-.345-.563-.334-.86.01-.298.111-.558.302-.782.192-.223.468-.334.83-.334a1.258 1.258 0 0 1 .911.37 1.516 1.516 0 0 1 .012.012l5.355 6.853.86.701 5.929 7.586c.239.294.359.573.359.836a.846.846 0 0 1-.009.12 1.027 1.027 0 0 1-.398.701 1.374 1.374 0 0 1-.275.165 1.004 1.004 0 0 1-.41.09 1.895 1.895 0 0 1-.246-.015 1.253 1.253 0 0 1-.238-.053.902.902 0 0 1-.138-.06 1.13 1.13 0 0 1-.181-.122 2.12 2.12 0 0 1-.313-.323Zm-12.304-1.371 5.865-7.33 1.37 1.816-5.577 7.076a.926.926 0 0 1-.588.358 1.432 1.432 0 0 1-.273.024 1.324 1.324 0 0 1-.353-.045.98.98 0 0 1-.46-.273 1.128 1.128 0 0 1-.318-.765c-.011-.298.1-.585.334-.861Zm8.256-6.343-1.562-1.593 5.514-6.98a1.36 1.36 0 0 1 .421-.408.954.954 0 0 1 .073-.039 1.3 1.3 0 0 1 .558-.127 1.4 1.4 0 0 1 .335.038.922.922 0 0 1 .493.296 1.115 1.115 0 0 1 .272.75 1.406 1.406 0 0 1 0 .047 1.443 1.443 0 0 1-.21.693 1.857 1.857 0 0 1-.126.184l-5.768 7.14Z" fill="#000" fill-rule="evenodd" data-name="Path 696"/><path d="M384.47 46.134v-7.968l-8.669-13.737a1.734 1.734 0 0 1-.158-.29 1.107 1.107 0 0 1-.08-.634 1.307 1.307 0 0 1 .178-.474 1.231 1.231 0 0 1 .22-.26 1.107 1.107 0 0 1 .644-.279 1.475 1.475 0 0 1 .152-.007 1.505 1.505 0 0 1 .257.02.94.94 0 0 1 .365.139c.16.107.303.255.43.446l8.606 13.865h-1.339l8.574-13.8a1.982 1.982 0 0 1 .181-.246 1.37 1.37 0 0 1 .229-.21 1.107 1.107 0 0 1 .084-.055 1.123 1.123 0 0 1 .36-.133 1.552 1.552 0 0 1 .293-.026 1.08 1.08 0 0 1 .42.08 1.019 1.019 0 0 1 .33.222 1.21 1.21 0 0 1 .35.75 1.197 1.197 0 0 1 .007.127c0 .255-.082.51-.246.765l-8.701 13.737v7.968a1.196 1.196 0 0 1-.361.871 1.46 1.46 0 0 1-.006.006 1.23 1.23 0 0 1-.472.301 1.236 1.236 0 0 1-.404.065 1.193 1.193 0 0 1-.865-.355 1.47 1.47 0 0 1-.012-.011 1.195 1.195 0 0 1-.366-.877Z" fill="#000" fill-rule="evenodd" data-name="Path 697"/><path d="m397.474 46.548-2.008-1.083 11.857-15.076 1.657 1.402-11.506 14.757Zm-1.243-16.605h11.825a1.605 1.605 0 0 1 .441.055c.45.129.674.482.674 1.06a1.606 1.606 0 0 1-.055.442c-.129.45-.482.674-1.06.674h-11.825c-.744 0-1.115-.372-1.115-1.116 0-.59.234-.946.702-1.067a1.644 1.644 0 0 1 .413-.048Zm.128 15.203h11.824a1.606 1.606 0 0 1 .442.056c.33.094.539.31.626.647a1.642 1.642 0 0 1 .048.413 1.606 1.606 0 0 1-.055.441.853.853 0 0 1-.648.627 1.644 1.644 0 0 1-.413.047H396.36c-.59 0-.946-.234-1.068-.702a1.646 1.646 0 0 1-.048-.413 1.607 1.607 0 0 1 .056-.442.853.853 0 0 1 .647-.626 1.644 1.644 0 0 1 .413-.048Z" fill="#000" fill-rule="evenodd" data-name="Path 698"/></g></g></svg>