<svg xmlns="http://www.w3.org/2000/svg" width="59.713" height="50" viewBox="1399 2502 59.713 50"><g data-name="Group 1034"><g data-name="Group 1030"><path d="M1439.828 2513.865v-10.356c0-.583-.333-1.114-.856-1.364a1.474 1.474 0 0 0-.637-.145 1.494 1.494 0 0 0-.951.342c-.105.089-10.85 8.807-27.085 8.93a.18.18 0 0 1-.002.002.118.118 0 0 1-.022.005.024.024 0 0 1-.002 0h-3.425a7.894 7.894 0 0 0-7.848 7.92v4.985c0 4.363 3.521 7.914 7.848 7.914h2.254l2.537 15.786c.036.158.908 3.67 6.26 4.078a13.728 13.728 0 0 0 1.042.038 10.677 10.677 0 0 0 1.742-.132c1.463-.243 2.535-.82 3.195-1.724.879-1.202.674-2.498.575-2.92l-2.388-13.518c8.97 2.467 14.812 6.91 15.301 7.293a2.098 2.098 0 0 1 .033.026 1.484 1.484 0 0 0 .934.33 1.518 1.518 0 0 0 .648-.147 1.515 1.515 0 0 0 .847-1.362v-9.443a8.384 8.384 0 0 0 6.887-8.267 8.383 8.383 0 0 0-6.887-8.27Zm-37.838 10.319v-4.986a4.884 4.884 0 0 1 4.858-4.902h4.198c.033 0 .063-.01.093-.018a.391.391 0 0 1 .074-.018 49.977 49.977 0 0 0 7.244-.714 49.907 49.907 0 0 0 6.201-1.486 49.863 49.863 0 0 0 1.296-.419v20.077a49.394 49.394 0 0 0-6.15-1.679c-2.501-.51-5.194-.855-8.051-.944v-9.36a1.5 1.5 0 0 0-1.495-1.509 1.501 1.501 0 0 0-1.495 1.509v9.346h-1.915c-2.68 0-4.858-2.199-4.858-4.897Zm26.954 8.662v-22.319a50.988 50.988 0 0 0 1.662-.716 48.714 48.714 0 0 0 4.809-2.5 42.064 42.064 0 0 0 1.423-.885v30.527a43.47 43.47 0 0 0-1.413-.875 50.542 50.542 0 0 0-5.717-2.909 51.953 51.953 0 0 0-.764-.323Zm-14.391 14.346-2.415-15.053a45.165 45.165 0 0 1 5.141.514 41.317 41.317 0 0 1 1.615.29l2.654 14.997a.56.56 0 0 1-.053.382.416.416 0 0 1-.031.045c-.206.256-.812.526-1.929.598a9.316 9.316 0 0 1-.594.018 10.693 10.693 0 0 1-.925-.038c-2.53-.22-3.259-1.323-3.432-1.683a1.148 1.148 0 0 1-.031-.07Zm25.275-19.894v-10.327a5.367 5.367 0 0 1 3.897 5.165 5.366 5.366 0 0 1-3.897 5.162Z" fill="#fff" fill-rule="evenodd" data-name="Path 3219"/></g><g data-name="Group 1031"><path d="M1457.148 2519.506h-3.544a1.563 1.563 0 0 0-1.565 1.566c0 .865.697 1.566 1.565 1.566h3.544a1.564 1.564 0 0 0 1.566-1.566c0-.865-.7-1.566-1.566-1.566Z" fill="#fff" fill-rule="evenodd" data-name="Path 3220"/></g><g data-name="Group 1032"><path d="m1452.002 2511.073 2.333-2.095a1.556 1.556 0 0 0 .477-.795c.117-.484 0-1.016-.358-1.415a1.557 1.557 0 0 0-.826-.484 1.559 1.559 0 0 0-1.384.364l-2.333 2.095a1.557 1.557 0 0 0-.48.807c-.104.448-.01.935.29 1.32a1.585 1.585 0 0 0 .07.084c.31.345.737.52 1.166.52.372 0 .749-.132 1.045-.4Z" fill="#fff" fill-rule="evenodd" data-name="Path 3221"/></g><g data-name="Group 1033"><path d="m1449.91 2533.591 2.334 2.095a1.557 1.557 0 0 0 .75.373 1.576 1.576 0 0 0 .296.028 1.559 1.559 0 0 0 1.074-.427 1.575 1.575 0 0 0 .09-.093 1.557 1.557 0 0 0 .377-.769 1.563 1.563 0 0 0-.41-1.36 1.588 1.588 0 0 0-.086-.082l-2.333-2.094a1.57 1.57 0 0 0-2.21.119 1.566 1.566 0 0 0-.372.742 1.56 1.56 0 0 0 .49 1.468Z" fill="#fff" fill-rule="evenodd" data-name="Path 3222"/></g></g></svg>