<svg xmlns="http://www.w3.org/2000/svg" width="42.446" height="50" viewBox="470.999 2502 42.446 50"><g data-name="Group 1028"><g data-name="Group 1022"><path d="m477.196 2521.83 4.807-4.859a1.024 1.024 0 0 0 .296-.721 1.043 1.043 0 0 0 0-.008 1.019 1.019 0 0 0-.31-.723l-3.27-3.19a4.42 4.42 0 0 0-3.092-1.252c-1.216 0-2.35.481-3.197 1.355a4.421 4.421 0 0 0-1.181 2.324 4.45 4.45 0 0 0 1.283 3.962l3.225 3.127a1.016 1.016 0 0 0 .513.27 1.026 1.026 0 0 0 .926-.284Zm.098-8.033 2.528 2.468-3.367 3.405-2.498-2.422a2.387 2.387 0 0 1-.687-1.278 2.402 2.402 0 0 1 .532-2.004 2.425 2.425 0 0 1 .1-.11 2.38 2.38 0 0 1 1.725-.731 2.394 2.394 0 0 1 1.667.672Z" fill="#fff" fill-rule="evenodd" data-name="Path 3210"/></g><g data-name="Group 1023"><path d="m492.097 2525.625-7.357-7.084a1.006 1.006 0 0 0-1.366-.024 1.012 1.012 0 0 0-.05.047l-4.65 4.78a.989.989 0 0 0-.282.693 1.012 1.012 0 0 0 0 .015.985.985 0 0 0 .305.698l7.734 7.433a60.36 60.36 0 0 0-.884 1.183 1 1 0 0 0-.404-.089.89.89 0 0 0-.039 0 .995.995 0 0 0-.738.374l-5.14 6.396c-.021.029-.03.064-.05.095-1.133.192-2.422.592-3.519 1.404a6.062 6.062 0 0 0-.538.449c-2.581 2.417-4.03 8.263-4.091 8.51a.985.985 0 0 0-.025.155.984.984 0 0 0-.004.08.99.99 0 0 0 .273.682 1.006 1.006 0 0 0 .905.297 12.017 12.017 0 0 0 .16-.03c.879-.169 4.98-1.025 7.592-2.72a7.435 7.435 0 0 0 1.036-.798 6.528 6.528 0 0 0 1.392-1.936 9.573 9.573 0 0 0 .687-1.967l.043-.019a.367.367 0 0 0 .08-.041l6.727-4.716a.994.994 0 0 0 .42-.713c.001-.023-.004-.044-.008-.066a.23.23 0 0 1-.005-.044c.318-.211.725-.486 1.204-.82a66.295 66.295 0 0 0 .46-.324l11.162 10.748a.943.943 0 0 0 .493.241 1.408 1.408 0 0 0 .036.007l8.169 3.402a1.008 1.008 0 0 0 .306.074 1.004 1.004 0 0 0 .08.003.997.997 0 0 0 .999-1.042.99.99 0 0 0-.089-.367l-3.686-8.01a.993.993 0 0 0-.245-.498.837.837 0 0 0-.02-.02l-10.403-10.014a59.729 59.729 0 0 0 1.54-1.442 36.235 36.235 0 0 0 1.016-1.028c5.807-6.1 11.727-16.089 11.99-16.535a.977.977 0 0 0-.2-1.221.988.988 0 0 0-1.27-.293 52.88 52.88 0 0 0-.345.19c-2.008 1.113-11.922 6.727-17.568 12.09a66.146 66.146 0 0 0-1.833 1.815Zm15.476 17.691.965 2.098-2.067 2.123-2.139-.891a.032.032 0 0 0-.011-.003c-.006 0-.01 0-.014-.002l-10.709-10.312a75.402 75.402 0 0 0 .798-.61 74.843 74.843 0 0 0 .276-.214l9.707 9.344a.996.996 0 0 0 .555.27 1.013 1.013 0 0 0 .14.01.998.998 0 0 0 .672-.258 1.013 1.013 0 0 0 .048-.045.99.99 0 0 0-.024-1.407l-9.53-9.175a83.832 83.832 0 0 0 1.03-.868l10.297 9.915a.036.036 0 0 1 .003.012l.002.01a.027.027 0 0 0 .001.003Zm-18.429-6.273-2.149-2.27c1.087-1.504 4.16-5.577 8.317-9.524 3.522-3.346 8.92-6.882 12.79-9.236a145.297 145.297 0 0 1 1.622-.973 145.214 145.214 0 0 1-1.018 1.57c-2.4 3.651-5.958 8.701-9.33 12.112a31.664 31.664 0 0 1-.465.46c-4.065 3.945-8.186 6.811-9.767 7.86Zm-8.337-13.03 3.26-3.35 6.66 6.411c-.31.337-.608.667-.895.992l-2.962-2.841a.99.99 0 0 0-.523-.265 1.005 1.005 0 0 0-.889.29.99.99 0 0 0 .024 1.407l3.043 2.92a80.03 80.03 0 0 0-.439.527 71.716 71.716 0 0 0-.413.506l-6.866-6.598Zm-.873 18.026 1.275 1.348c-.203 1.094-.648 2.429-1.615 3.335a6.064 6.064 0 0 1-1.065.773c-1.474.868-3.552 1.521-5.106 1.913a30.433 30.433 0 0 1 .348-1.021c.647-1.795 1.6-3.895 2.72-4.944.861-.806 2.037-1.182 3.065-1.35a9.4 9.4 0 0 1 .378-.054Zm2.79.045-1.392-1.47 3.876-4.826 2.592 2.738-5.077 3.558Zm25.728 6.277.979-1.004.805 1.748-1.784-.744Z" fill="#fff" fill-rule="evenodd" data-name="Path 3211"/></g><g data-name="Group 1024"><path d="M486.903 2513.645a1.024 1.024 0 0 0 .947-.639 4.756 4.756 0 0 1 1.209-1.727 3.01 3.01 0 0 1-.014.105c-.01.07-.019.14-.019.213a3.204 3.204 0 0 0 3.199 3.199 3.202 3.202 0 0 0 3.199-3.2c0-.107-.02-.21-.032-.316.515.467.933 1.05 1.21 1.726a1.02 1.02 0 0 0 .571.567 1.019 1.019 0 0 0 .374.07 1.05 1.05 0 0 0 .055 0 .994.994 0 0 0 .33-.075 1.02 1.02 0 0 0 .586-.623 1.015 1.015 0 0 0-.023-.71 6.745 6.745 0 0 0-6.27-4.221 6.744 6.744 0 0 0-6.27 4.22 1.027 1.027 0 0 0-.067.255 1.022 1.022 0 0 0 1.015 1.156Zm4.17-2.048a1.154 1.154 0 0 0 1.152 1.151 1.152 1.152 0 0 0 1.151-1.151 1.153 1.153 0 0 0-1.151-1.152 1.154 1.154 0 0 0-1.152 1.152Z" fill="#fff" fill-rule="evenodd" data-name="Path 3212"/></g><g data-name="Group 1025"><path d="M493.249 2504.431v-1.407c0-.566-.458-1.024-1.024-1.024a1.023 1.023 0 0 0-1.024 1.024v1.407c0 .566.458 1.024 1.024 1.024a1.023 1.023 0 0 0 1.024-1.024Z" fill="#fff" fill-rule="evenodd" data-name="Path 3213"/></g><g data-name="Group 1026"><path d="m487.02 2505.933-.996-.996a1.02 1.02 0 0 0-.515-.278 1.02 1.02 0 0 0-.88.229 1.036 1.036 0 0 0-.052.049c-.382.381-.4.987-.054 1.39a1.04 1.04 0 0 0 .054.057l.997.996c.198.2.46.3.722.3a1.019 1.019 0 0 0 .69-.268 1.047 1.047 0 0 0 .034-.032 1.02 1.02 0 0 0 .28-.528 1.024 1.024 0 0 0-.28-.92Z" fill="#fff" fill-rule="evenodd" data-name="Path 3214"/></g><g data-name="Group 1027"><path d="m498.878 2507.38.996-.996c.4-.4.4-1.047 0-1.447a1.019 1.019 0 0 0-.517-.279 1.023 1.023 0 0 0-.93.279l-.997.996a1.02 1.02 0 0 0-.278.516c-.068.326.025.678.278.931a1.019 1.019 0 0 0 .516.279c.068.014.137.02.207.021a.743.743 0 0 0 .001 0 1.02 1.02 0 0 0 .666-.246 1.038 1.038 0 0 0 .058-.054Z" fill="#fff" fill-rule="evenodd" data-name="Path 3215"/></g></g></svg>