<svg xmlns="http://www.w3.org/2000/svg" width="53.215" height="50" viewBox="934.242 2073.543 53.215 50"><g data-name="Group 1020"><path d="M962.13 2105.287v-6.014a1.282 1.282 0 0 0-1.282-1.283 1.282 1.282 0 0 0-1.283 1.283v6.017a6.268 6.268 0 0 0-4.972 6.124 1.283 1.283 0 1 0 2.566 0 3.697 3.697 0 0 1 3.692-3.695 3.696 3.696 0 0 1 3.691 3.695 1.283 1.283 0 0 0 1.283 1.282c.708 0 1.283-.574 1.283-1.282a6.269 6.269 0 0 0-4.977-6.127Z" fill="#fff" fill-rule="evenodd" data-name="Path 3197"/><path d="m983.194 2120.873-43.878.002a2.374 2.374 0 0 1-1.634-.705c-.37-.358-.63-.799-.728-1.197a1.42 1.42 0 0 1-.045-.341v-1.147h2.668a1.333 1.333 0 0 0 1.333-1.334v-21.86a4.802 4.802 0 0 1 .549-2.338c.855-1.558 2.683-2.415 5.294-2.415h7.692v2.796a.244.244 0 0 1-.026.093c-.082.184-.347.498-.586.781a23.483 23.483 0 0 0-.49.595c-1.003 1.27-2.177 3.214-2.233 7.082a20.055 20.055 0 0 0-.002.292c0 .645.46 1.196 1.096 1.311.223.041.483.068.773.075a6.246 6.246 0 0 0 .149.002 6.822 6.822 0 0 0 1.093-.09 6.877 6.877 0 0 0 4.496-2.763 7.997 7.997 0 0 0 .57-.9 1.335 1.335 0 0 0-.496-1.789 1.36 1.36 0 0 0-.036-.02 1.335 1.335 0 0 0-1.81.532 5.387 5.387 0 0 1-.46.71c-.842 1.094-1.874 1.48-2.654 1.603.233-2.716 1.182-3.898 1.985-4.851a133.256 133.256 0 0 1 .058-.07 121.071 121.071 0 0 0 .058-.068c.443-.527.886-1.071 1.08-1.77a2.801 2.801 0 0 0 .102-.755v-9.344c0-2.782 2.19-5.109 3.512-6.261a14.462 14.462 0 0 1 .23-.197 14.05 14.05 0 0 1 .472.41c.77.699 1.764 1.754 2.45 3.043a6.396 6.396 0 0 1 .812 3.005v9.342c0 1.124.63 1.873 1.24 2.595a19.872 19.872 0 0 1 .411.499c.59.746 1.191 1.704 1.49 3.348a11.435 11.435 0 0 1 .14 1.065 4.246 4.246 0 0 1-.62-.15c-.69-.221-1.469-.671-2.117-1.56a5.37 5.37 0 0 1-.376-.595 1.33 1.33 0 0 0-.754-.628 1.338 1.338 0 0 0-1.008.072 1.383 1.383 0 0 0-.047.024 1.334 1.334 0 0 0-.532 1.81 7.773 7.773 0 0 0 .905 1.324c1.83 2.148 4.338 2.543 5.801 2.402a4.507 4.507 0 0 0 .376-.052 1.333 1.333 0 0 0 1.094-1.311 17.518 17.518 0 0 0-.102-1.936c-.325-2.927-1.37-4.497-2.245-5.576a29.253 29.253 0 0 0-.377-.455 63.052 63.052 0 0 1-.092-.109c-.26-.31-.52-.633-.52-.767v-2.794h8.776a8.817 8.817 0 0 1 1.74.152c2.144.435 3.016 1.835 3.016 4.602v21.859c0 .737.597 1.334 1.333 1.334h2.67v1.147a2.706 2.706 0 0 1-.002.1c-.017.445-.164 1.98-1.396 2.13a1.651 1.651 0 0 1-.198.011Zm2.929-6.055h-2.67v-20.526a10.839 10.839 0 0 0-.25-2.417c-.779-3.407-3.26-4.617-5.74-4.92a11.828 11.828 0 0 0-1.432-.084h-8.776v-3.881c0-5.134-4.923-8.726-5.603-9.2a6.246 6.246 0 0 0-.065-.045 1.276 1.276 0 0 0-.71-.202c-.296 0-.598.089-.841.253-.21.142-4.795 3.288-5.5 7.986a8.129 8.129 0 0 0-.091 1.208v3.88h-7.692a11.047 11.047 0 0 0-3.704.593c-2.793.993-4.546 3.18-4.78 6.143a8.75 8.75 0 0 0-.026.686v20.526h-2.668c-.736 0-1.333.597-1.333 1.333v2.48a3.967 3.967 0 0 0 .059.675c.365 2.118 2.39 4.237 5.015 4.237l43.878-.003c2.735 0 4.078-2.218 4.245-4.436a6.318 6.318 0 0 0 .018-.472v-2.481a1.333 1.333 0 0 0-1.334-1.333Z" fill="#fff" fill-rule="evenodd" data-name="Path 3198"/><path d="M976.668 2115.156h-10.236a1.405 1.405 0 0 0-.954.367 1.245 1.245 0 0 0-.41.888h-8.44a1.31 1.31 0 0 0-1.124-1.235 1.456 1.456 0 0 0-.238-.02h-10.234a1.402 1.402 0 0 0-.96.373 1.243 1.243 0 0 0-.402.91 1.308 1.308 0 0 0 1.13 1.264 1.456 1.456 0 0 0 .232.019h8.87a1.31 1.31 0 0 0 1.125 1.236 1.457 1.457 0 0 0 .239.02h11.166a1.403 1.403 0 0 0 .954-.368 1.246 1.246 0 0 0 .409-.888h8.873a1.402 1.402 0 0 0 .96-.373 1.243 1.243 0 0 0 .403-.91 1.308 1.308 0 0 0-1.13-1.264 1.456 1.456 0 0 0-.233-.019Z" fill="#fff" fill-rule="evenodd" data-name="Path 3199"/><path d="M949.616 2112.811a1.282 1.282 0 0 0 1.283-1.283 3.044 3.044 0 0 1 1.898-2.825 1.28 1.28 0 0 0 .746-.828c.049-.166.064-.343.042-.52a1.285 1.285 0 0 0-.086-.325 1.282 1.282 0 0 0-.848-.75 1.286 1.286 0 0 0-.485-.038 1.282 1.282 0 0 0-.34.086 5.6 5.6 0 0 0-3.492 5.2 1.282 1.282 0 0 0 1.282 1.283Z" fill="#fff" fill-rule="evenodd" data-name="Path 3200"/><path d="M970.8 2111.528a3.049 3.049 0 0 0-1.9-2.828 1.283 1.283 0 0 1-.784-1.35 1.286 1.286 0 0 1 .087-.324c.221-.544.775-.85 1.33-.788a1.278 1.278 0 0 1 .343.09 5.606 5.606 0 0 1 3.49 5.2c0 .71-.574 1.283-1.283 1.283a1.282 1.282 0 0 1-1.283-1.283Z" fill="#fff" fill-rule="evenodd" data-name="Path 3201"/></g></svg>