<svg xmlns="http://www.w3.org/2000/svg" width="45.212" height="60.21" viewBox="2182.901 3012.57 45.212 60.21"><path d="m2213.79 3046.828-3.63 6.913-.994-4.922c2.05-.769 3.46-1.986 3.828-2.328a3.159 3.159 0 0 0 .092-.088 1.5 1.5 0 0 0 .437-1.037l.07-4.981a9.88 9.88 0 0 0 .28-.323c.325-.39.708-.909 1.062-1.54a9.695 9.695 0 0 0 .333-.648 3.65 3.65 0 0 0 1.549-1.564c.437-.804.699-1.837.759-3.059a325.272 325.272 0 0 0 .002-.042c.048-.96.095-2.087-.453-3.085a3.305 3.305 0 0 0-.206-.327c.156-2.043-.04-3.956-.566-5.653a10.771 10.771 0 0 0-2.143-3.922 9.869 9.869 0 0 0-5.443-3.141 13.26 13.26 0 0 0-2.53-.296l-1.207.002a.061.061 0 0 0-.017.002c-.008.003-.016.006-.025.006a13.06 13.06 0 0 1-.743-.032c-1.873-.132-5.368-.763-7.28-3.544a1.53 1.53 0 0 0-1.265-.649c-.037 0-.073.002-.11.004a1.592 1.592 0 0 0-.032.003 1.502 1.502 0 0 0-1.227.94 6.568 6.568 0 0 0-.053.143c-.375 1.019-2.36 6.935.24 10.99a7.1 7.1 0 0 0 .19.28 14.825 14.825 0 0 0-.402 3.025c-.006.173-.008.346-.008.52a17.222 17.222 0 0 0 .05 1.319 3.39 3.39 0 0 0-.474.953c-.263.825-.225 1.693-.187 2.455a372.893 372.893 0 0 0 .002.048c.068 1.373.389 2.508.927 3.347a3.529 3.529 0 0 0 1.383 1.28 10.289 10.289 0 0 0 1.671 2.508l.07 4.981c.007.414.183.807.489 1.087a4.146 4.146 0 0 0 .1.086 13.81 13.81 0 0 0 3.653 2.159 12.467 12.467 0 0 0 .131.05l-1.074 5.317-3.801-7.237a1.5 1.5 0 0 0-1.331-.802c-.082 0-.164.006-.246.02a1.535 1.535 0 0 0-.115.023 30.345 30.345 0 0 0-.28.072c-1.527.398-7.492 2.055-10.126 4.318a5.532 5.532 0 0 0-.552.54 3.795 3.795 0 0 0-.576.95c-1.263 2.824-1.525 9.062-.39 11.107a2.005 2.005 0 0 0 .182.276 16.664 16.664 0 0 0 4.725 4.443c4.832 3.162 11.51 4.964 16.89 5a.041.041 0 0 1 .011.003.03.03 0 0 0 .012.002l.036-.001a.802.802 0 0 1 .036-.001.799.799 0 0 1 .036 0l.036.002a.033.033 0 0 0 .01-.002c.004 0 .009-.003.014-.003a29.36 29.36 0 0 0 4.11-.333c6.747-1.007 14.202-4.242 17.437-9.02a2.972 2.972 0 0 0 .437-.84c1.029-2.866.47-9.736-1.154-11.583a6.588 6.588 0 0 0-1.102-.97c-2.972-2.14-8.666-3.657-9.754-3.934a25.519 25.519 0 0 0-.102-.026 1.55 1.55 0 0 0-.085-.018 1.527 1.527 0 0 0-.276-.025 1.502 1.502 0 0 0-1.331.802Zm9.118 16.85v-5.45a1.5 1.5 0 0 0-1.5-1.5 1.501 1.501 0 0 0-1.502 1.5v7.608a28.447 28.447 0 0 1-5.76 2.527 30.987 30.987 0 0 1-5.083 1.155 26.532 26.532 0 0 1-3.549.258c-4.382-.013-9.1-1.237-12.9-3.14a25.032 25.032 0 0 1-1.492-.809v-7.599a1.5 1.5 0 0 0-1.501-1.5 1.5 1.5 0 0 0-1.501 1.5v5.44c-.744-.664-1.386-1.358-1.874-2.078-.656-1.122-.346-6.508.376-8.223a1.504 1.504 0 0 1 .22-.387 3.176 3.176 0 0 1 .36-.343c1.383-1.145 4.587-2.351 7.207-3.14a46.534 46.534 0 0 1 .729-.212l9.059 17.246c.006.011.017.018.023.029a1.446 1.446 0 0 0 .303.373c.04.036.08.069.124.1a.65.65 0 0 1 .062.053c.028.027.057.054.093.074a.256.256 0 0 0 .003.002.355.355 0 0 0 .096.03l.024.006a.432.432 0 0 1 .058.016 1.181 1.181 0 0 0 .048.018 1.558 1.558 0 0 0 .176.048 1.855 1.855 0 0 0 .152.025 1.432 1.432 0 0 0 .45-.022 1.481 1.481 0 0 0 .226-.064 1.136 1.136 0 0 0 .02-.008.46.46 0 0 1 .073-.02.367.367 0 0 0 .092-.027.201.201 0 0 0 .003-.002c.036-.019.064-.046.092-.072a.569.569 0 0 1 .06-.052c.048-.034.09-.069.133-.108a1.45 1.45 0 0 0 .3-.37.058.058 0 0 1 .01-.014c.005-.004.01-.01.013-.015l3.858-7.344c.128-.157.223-.334.28-.532l4.921-9.37c2.973.84 7.11 2.345 8.295 3.695a1.645 1.645 0 0 1 .249.458c.655 1.667.95 6.363.43 7.924a1.489 1.489 0 0 1-.125.284c-.477.703-1.104 1.382-1.83 2.033Zm-17.281-43.89h.576a9.715 9.715 0 0 1 2.452.352 6.73 6.73 0 0 1 3.293 2.055 7.858 7.858 0 0 1 1.584 2.984c.408 1.39.535 2.993.364 4.728a16.171 16.171 0 0 1-.025.232 1.504 1.504 0 0 0-.01.167 1.504 1.504 0 0 0 .524 1.14.482.482 0 0 1 .14.213c.076.215.091.576.063 1.245a26.796 26.796 0 0 1-.01.198 6.622 6.622 0 0 1-.065.665c-.125.82-.385 1.324-.627 1.437a.265.265 0 0 1-.058.02 1.503 1.503 0 0 0-1.12 1.009 6.37 6.37 0 0 1-.29.635 7.305 7.305 0 0 1-1.234 1.695 3.449 3.449 0 0 1-.051.05c-2.13 1.685-3.726 1.621-5.127 1.557a4672.013 4672.013 0 0 0-.045-.002 24.41 24.41 0 0 0-.403-.019 9.96 9.96 0 0 0-.373-.008 1.501 1.501 0 0 0-1.501 1.501c0 .83.672 1.502 1.501 1.502a7.913 7.913 0 0 1 .302.006 36.716 36.716 0 0 1 .327.015c.295.016.63.032.998.032a12.84 12.84 0 0 0 .018 0 9.35 9.35 0 0 0 2.542-.334 9.222 9.222 0 0 0 1.19-.422l-.031 2.212c-.786.621-2.582 1.817-4.77 1.817-2.052 0-3.867-1.039-4.814-1.7a10.492 10.492 0 0 1-.216-.154l-.067-4.875a1.524 1.524 0 0 0-.494-1.091 1.721 1.721 0 0 1-.038-.037 7.342 7.342 0 0 1-1.576-2.386 1.694 1.694 0 0 0-.028-.075 1.867 1.867 0 0 0-.075-.163 1.432 1.432 0 0 0-.013-.025 1.501 1.501 0 0 0-1.008-.742.289.289 0 0 1-.097-.04c-.25-.16-.512-.738-.614-1.648a7.036 7.036 0 0 1-.035-.434 26.462 26.462 0 0 1-.01-.21c-.028-.678-.01-1.036.07-1.246a.469.469 0 0 1 .133-.195 1.502 1.502 0 0 0 .527-1.143 1.511 1.511 0 0 0-.009-.167 15.255 15.255 0 0 1-.097-1.489c-.012-.831.05-1.627.184-2.38a10.626 10.626 0 0 1 .174-.796c.072-.277.037-.547-.04-.803a1.648 1.648 0 0 0 .029-.291 1.448 1.448 0 0 0-.273-.874 1.44 1.44 0 0 0-.055-.072c-1.298-1.562-1.274-4.066-.923-6.095a15.966 15.966 0 0 1 .056-.309 10.938 10.938 0 0 0 1.701 1.12c3.282 1.754 6.87 1.668 7.474 1.638Zm.6 29.645 1.72 8.52-2.433 4.631-2.262-4.306 1.79-8.865a7.816 7.816 0 0 1 .246.025h.008a4.164 4.164 0 0 0 .465.034 2.231 2.231 0 0 0 .262-.02c.068-.007.135-.015.205-.02Zm-.797 23.345h.004" fill="#fff" fill-rule="evenodd" data-name="Path 3216"/></svg>